<?xml version="1.0" encoding="UTF-8"?>
<svg xmlns="http://www.w3.org/2000/svg" viewBox="0 0 789 742" width="32" height="30.093789607098"><path d="m602.25 535.47-1.19.26c-.32 2.92-.5 5.83-2.31 8.63-.31-.85-.49-1.34-.82-2.26-.94 2.88-3.57 4.44-4.06 8.13l-4.32 3.77 1 1.49c-.21.55-.31 1.53-.7 1.67-2 .71-2.11 3.41-4.41 4l-1.25-.92c-1 1.56-2.06 3.11-3.26 4.94-2.64 1.15-2.64 1.15-4.75.18l-6.37 3.28-1.32-1c-1.5 1.27-2.07 3.61-4.61 3.69-2.08-.74-4.36-1.67-6.76-.09-.42.29-1.31-.06-2-.2-1-.22-2.07-.51-3.17-.78-.83 2.62-4.92 1.09-4.87 4.24-4.14-1.94-8.13 1.4-12 0l-2.67-3.32c-2.77 1-5.14 2.37-7.94 1.68-.12 1.07-.19 1.74-.26 2.4l-6.47.84-2.21-1.2-5 .81-2-1.93c-2.55.35-5.25-.54-7.95.77-.76-.2-2.18-1-2.74-.63-2.65 1.89-4.54-.08-6.53-.94l-8.05 3.46c-1.34.26-3.67-.75-5.3.53l-6.96-1.07c-2.29-.17-4.32 2.72-7 .45l-2 1-.91-.83c-1.27.5-2.49 1.41-3.64 1.34a15.49 15.49 0 0 1 -4.85-1.54c-.47-.2-.65-1.06-1-1.62l-1.77 1.65c-1.12-1.44-2 .47-3.22.14s-2.69.11-4 .39a24 24 0 0 0 -3 1c-2.28-.4-4.27-.77-6.27-1.09-.19 0-.43.29-.69.47-1.93-.62-3.59-2.51-6-1.49l-.51 1.48-1.09-.83-3.75 3.75c-1.36-1.91-4.72-.35-4.2-3.56l-5-.6c-.6.68-2.94.28-2.65 2.78h-4l-.51-1.5-1.18.8-7.17-2.89-2.27 2.74c-1.22.26-3.25 1.4-4.53.84-2.79-1.23-5.52-.28-8.22-.7-.78-.12-1.53-.33-2.63-.57-.15.22-.54.77-.89 1.29h-3.54l-4.9-4.16-3.14 1.49a1.34 1.34 0 0 1 -.36-.12c-1.66-.78-3.12-2-5.26-1-.78.38-2.1-.36-3.19-.59-.08-.73-.15-1.4-.25-2.31-.49.33-.84.72-1.25.8-2.66.56-5.19-.47-7.63-1.12-1.22-.33-2.43-.21-3.56-.59a4.17 4.17 0 0 0 -2.73-.07 5.48 5.48 0 0 1 -5.53-1.6l-3.69 1.11v-2.21l-3.2-2.16c-1.08 1.51-2.8.25-4.18.85-.44-2.47-3.05-2-4.1-3.42-3.28-.63-6.71.77-9.87-1a9.69 9.69 0 0 1 -2.18.8c-1 .13-2.08-1.08-3.12 0-.9-1.31-1.8.06-2.69 0a12.48 12.48 0 0 1 -2.34-.49 11 11 0 0 0 -7.16.51c-1.2-1.54-2.86-.58-4-.83l-4.62 3.32-2.19-3.27c-1.77.65-1.55 3.64-4.8 2.77a5.75 5.75 0 0 0 -1-1.39 10 10 0 0 0 -2-1.24l-4.26 1.85-1.75-2.73c-2.3 1.1-2.42 1.1-6.2.06v2l-3.08 1.52-2.28-3.46-5.33 1.42-4.19-1.94.08-.61-4.73.49-1.08-2.25.91-1.3-1.46-.41c-.13.87-.24 1.63-.36 2.4-1.34-.39-2.57-.93-4.08-.26a18.14 18.14 0 0 1 -4.14.78v-2.54a14.3 14.3 0 0 0 -6.12.3l1.15.4-2.18 2.4h-3l-1.67-2.67-1.56 3.43c-.8-.77-1.67-1.42-2.44.14l-1.23-1.06-4.31 2.72h-2.36l-1.62-2.46-.83.84c-2.13-1.31-4.25-1.18-6.48.39a5.92 5.92 0 0 1 -4 .81c-1.11-.17-2.08.54-3.46-.22s-3.86-.14-5.84-.21a15 15 0 0 1 -2.52-.56l-.63.55-.87-.78-1 .91a13.86 13.86 0 0 0 -1.42-2.51 12.48 12.48 0 0 0 -2.3-1.65l1.18-2.37-4.39-2.58a6.69 6.69 0 0 1 -.56-2.9 28.77 28.77 0 0 0 -.58-4l-1.58-1.54 1-2.74c-.4-1.52-2.15-2-1.91-3.78.13-1-1-2.07-1.69-3.28l.9-1.23c-.14-.16-.33-.36-.57-.61-.23-.82 1.77-1.79-.11-2.51l.92-1.9-2.06-1.59 2.7-2.62-2.23-4.52 2.21-1.27a11.19 11.19 0 0 1 -2-10.69l-1.49-.51c.52-2.09 1-4.23 1.71-7l-2.38-4.75 2.33-3.5c-.31-1.77-.55-3.18-.83-4.77l3.53-1.36-1.11-4.34-2.47-1.7 1.16-2.11-.9-1.25c1.67-3.34 1.67-3.34 3.49-4.48l-2.76-4.12 2.41-.46c0-.19 0-.45-.14-.58-.72-.76-1.48-1.49-2.3-2.31l1.84-.66-1.71-1.81c-.4-2 .69-2.84 2.39-3.19-.64-1.31-1.26-2.57-1.89-3.88l-1.33-.45c-.54-1.23 2-2.15.06-3.38.46-.88.92-1.77 1.43-2.77l-.66-.77 1.83-1.94-2.67-4v-7.19l2.8-4.74-1.77-.63 3.5-3.2-3.47-2.55c-.3-1.87-.55-3.45-.89-5.59l2.54-2.82-1.79-1.66a2.75 2.75 0 0 0 -.15-1.14 11.76 11.76 0 0 0 -1.17-2l3.22-.73-2.52-4.43c.17-.53.43-1.37.7-2.21l-2.13-2.4 2-2.22-1.61-.57c.39-.77.77-1.54 1.1-2.21l1.36-.32c-.37-1.23-.71-2.35-1-3.38l1.83-1.94-1.68-1.68v-2.55l-1.35-1.35.3-2.61c1.78-3.94.64-8.44 1.86-12.51.11-.38-.42-.94-.68-1.47l1.83-.85-2.19-3.14 2.32-1.3-3.66-2.74 3.81-2-2.81-2.32 2.11-1.05c-1-3.1-1-3.1 0-5.07l-1.66-3.17c.73.17 1.38.14 1.61.43a5.91 5.91 0 0 0 1.89 2c-.16-1-.31-1.94-.49-3.06l1.41-.5c-.54-1.23-1.08-2.46-1.61-3.69l1.49-.54c-.72-1.33-2.55-1.82-2.56-4a9.44 9.44 0 0 0 1 .67c.36.15.74.24 1.2.38l.57-1.62 2 .76c.75-1.57.37-2.61-.94-3.39l-.85.75-1.26-1.41 1.92-1.36-.9-.9c0-.8 1.73-1.76-.64-2.71 1.69-.8 3-1.3 4.15-2s2.17-1.51 3.22-2.27l-1.24-3.15c1.5.41 2.91 1.19 3.3.84 1.33-1.18 2.09 1 3.28.23a14.11 14.11 0 0 1 3-1.09c-.95-1.43-1.3-2.74.65-4.08.23.7.5 1.5.77 2.3l1.74-1.48c1.12 2.43-2.22 1.52-2.18 3.06l1.07 1.13 3-2.15 1-2.19 3.42-2.53 2 1.75 3.35-2.27 3.57 1.81 4.37-2.54c.69.37 1.68 1.33 2.67 1.34 1.54 0 2.23 1 3.12 1.79a13 13 0 0 1 2.93-2.61l1.33 3.29 1.24.6-.89 1.09c.58.08 1.17.33 1.32.16 1.49-1.61 2.9-3.28 4.3-4.9.46 1.19 1.77-.56 2.35.49.75-.86 1.79.16 2.78-.52.77-.53 2.18-.11 3.35-.11.56.52 1.16 1.08 1.5 1.41l5-2.44c2.22 2.7 7 1.84 8.15 6.87l2.53-3.35 1.6 2.51c2.33 1 3.23-2.07 5.53-2.63l-.77 1.58.95.34 1.7-2.59 2.14 2.74-.87 2.21 6.85-1.7.35-1.48c2.09-.24 2.78 1.57 4.22 2.76l1.27-2.19c2.1 1.15 4.19 2.56 6.85 1.66l.83-.82c-.25-1-.49-1.91-.78-3.07h4.13s.17.12.15.16c-.47.92-1 1.82-1.58 3l2.78 1.31 1.34-2.6-2.14-.83 3.57-.37 1.89 3.88c.73-.63 1.21-1.08 1.73-1.47s.88-.55 1.39-.87l.93 2 2-3.86 3.73-1.23c.77.19 1.79 1.81 2.9-.2.57.89 1.06 1.68 1.58 2.48 1.05-.4 2.25-1.53 3.35.24l1.81-1.7h1.8c.17.48.34 1 .59 1.68l2.16-1.89 1.39.93c2.19-1.35 5.67-1.06 6.22-5 3.16.85 5.2-2.33 8.33-1.68.16-.48.33-1 .6-1.76l3.23.59 1-2.42 9.09-7.53v-2.73l5-3.65c.24-1.17.09-2.93 2.3-2.95l1.7-4a3.92 3.92 0 0 0 1.24-.65c1.36-1.22 2.48-2.8 4-3.72s2.13-2.65 3.41-3.8 1.79-2.93 2.85-4.28a12.53 12.53 0 0 1 2.54-1.95v-1.78c3.1-.47 4.74-3 6.56-4.64.62-2.12.72-4 2.82-4.95 1.56-.72 1.51-2.59 1.93-4.05l1.28-.34v-2.44c2.89-2.94 3.27-6.68 3.64-10.61l1.62-1.7v-5.07l3.5-1.24c-.45-2.13.73-4.15-1.29-5.9 1.82-1.13.19-4.5 3.44-4.36l.87-3.19-1.31-1.31c2.25-3.75 2.62-7.87 2.42-11.87l3.61-2.66c-.24-1.33-.46-2.66-.72-4s-.55-2.55-.79-3.65c.81-3.31 1.63-6.62 2.42-9.86l1.06-.05c.86-.87.44-2.65-1.45-5.73.31-3.65.48-7.52 1.06-11.33.24-1.59 1.62-3 1-4.81 1.31-1.16.31-2.68.71-4.09l1.59-1.67c-1.15-1.15-2.25-2.26-3.39-3.39l1.61-1.5v-4.26l-1.86-1.18c.37-.64.48-1.12.77-1.3 2-1.19.7-3.47 1.71-5-1.54-1.77.47-2.9.79-4.33 1.92-.25 1.49-2.21 2.53-3.27l.6.46 5.88-5.85v-3.29l3.29-1.25c0-.34 0-.61.07-1.07h3.57c1.34-2.43 3.12-3.26 5.64-2.43 1.45.48 3.52-.25 3.85 2.18 2.74-1.6 2.74-1.6 9.19-1.68l2.61-1.38 2.92.78c.17.48.35 1 .55 1.54l1.86-1.75c4.36.75 5.35 5.22 8.35 7.53 2.63-2.19 4.18 1.08 6.41 1.16l.16 3.26 1.35-.9 7.25 3.77 4.94 4.38-1.13 2.8h2l3.33 3.1v2l5.19 1.47c.34 1 .85 2.65 1.39 4.34l-1 1.84 2.4.21c2.24 1.43.23 5 3 6.12.08 3 .14 5.85 2.63 7.86l-.92.92c1 1.68.42 4.46 3.58 5l-2.1 1 2.08 2.79c-.19.64-.41 1.39-.7 2.4 1.33.55 1.21 2.85 3.42 3.32l-2 2.74a8.31 8.31 0 0 0 2.59 6.57c-.46 1.31-.93 2.68-1.47 4.23l2.2 3.26c-.55 1.21-1.12 2.38-1.59 3.58a3.58 3.58 0 0 0 0 1.27c0 .85-.35 2 .07 2.49 1.38 1.62.24 3.81 1.31 5.71-.13.34-.4 1-.76 2l1.79 2v3.6l-1.48 1.48.82 1.07-1.69.72a14.85 14.85 0 0 0 .65 5.58c.47 1.35-.3 3.13-.58 5.17.49 1.29 1 3.16 3.18 3.61l-1.53 2.7c.24.25.52.56.93 1-.6 1.12-1.21 2.28-1.84 3.48.33 1.27 2 2.59 0 3.88l.68.77c-.67 2.58-2.66 3.58-5 4.26l1.6 1.72-.87 5.44 2.05 3.76c-2.44 1.34-1.39 5.56-5.4 6.36l1.72.36-.55.5c1-.18 2-.42 3-.55 2-.28 4.14.56 6.06-.81.35-.25 1.25.24 1.89.43a20.07 20.07 0 0 0 4.17 1.14 6.76 6.76 0 0 0 3.84-.88c1.5-1 2.62-.78 4.14-.15a4.44 4.44 0 0 0 3.59 0c1.25-.85 2.42-.46 3.61-.58s2.27.08 3.39-.06a15.93 15.93 0 0 0 2.63-.81c2.56-.78 2.56-.78 5.17.36l-.77.89a1.7 1.7 0 0 0 .21.28.65.65 0 0 0 .36.16c1.27 0 2.87.5 3.76-.09 2.73-1.78 6.56.74 8.71-2.46a21.93 21.93 0 0 0 4.74-.07c1.41-.33 2.61 1.5 3.89.22a8 8 0 0 1 1.22 1.18c.2.29.15.75.26 1.4l4.52-3.35 2.49 1.32c1.41-.26 2.85-1 3.69-.59 2.16 1.1 4.74-.09 6.41.91 2.15 1.3 4.18-.11 6.34 1.14 0 .35.18 1.13.3 1.9 4.19.64 8.35 1.13 12.44 2 1.47.3 2.77 1.45 4.17 2.22 2.52-2 5 .4 7.61.58a2.83 2.83 0 0 1 2.87 3.11l2.7-.19a7.68 7.68 0 0 1 1.15-.61c1.13 1 3.18 1.15 3.17 3.25l2.91.16c.14.52.23.9.38 1.45h2.87a17.51 17.51 0 0 0 3.48 1.81c1.78.4 2.14 1.5 2 3 1.46.62 3.1 1 4.29 1.92s1.76 2.37 2.65 3.63h2.75l3.76 3.76c.06.67.13 1.34.22 2.22l1.63-1c.32.43.65.89 1.3 1.75l3.09 1.45c-.58-.44-.44-.38-.37-.28 2.55 4.21 5.44 8.19 7.81 12.5.18.33 0 .84 0 1.3l2.57 2.5c-.14 3-.06 6.17 2.52 8.54-1.33.88-.67 2.27-.81 3l-2.52 2.62 1.5 2.92-.41.49a27.45 27.45 0 0 1 .7 5.25c-.37 1.83-.73 3.65-1.09 5.42l-1.86.65a6.14 6.14 0 0 1 1.06 1.75c.23 1.43-.95 2.87-.07 4.35-1.63 1-.19 3.05-1.68 4.48s-1.42 4-2.63 5.6a6.55 6.55 0 0 0 -1.71 3.82l-1.33.07v2.93l-2.93 1.86a11.79 11.79 0 0 0 5.43 5l-1.61.54 1.89 4.95a6.15 6.15 0 0 1 .86 0c.11 0 .2.19.36.35v3.5l1.81 1.37c-.41 2.26-.76 4.24-1.13 6.28l2.38.83-2.61.76c1.06 1.72 1.91 2.53 2.09 3.48.49 2.53.7 5.11 1.09 8.26l-2.31 2.36.41.41-2.73 1.77c2.13.26 1.92 2.15 2.71 2.74.31 1.91-2.24 3.35 0 4.79-1.08 1.57-.88 3.87-3.38 4.78h-2.93c-.51.79-1 1.59-1.54 2.33-.84 1.12-1.2 2.45-2.89 3.1s-1.94 2.75-2.16 4.52c-1 1.42-3.83 1.28-3.35 4.12.13.78-2.35 2-4 2.39l-.35 1.34-2.06.12-.43 1.4 2.55.39v3.86l-1.37 1.29a2.42 2.42 0 0 0 .22.61c1.17 1.53 3.52 2 3.93 4.66l-2.52 1.86 1.37 1.37c-.66 2-1.3 4-2.09 6.42l3.18 2.6c-.14.3-.41.86-.71 1.52l.7.76-.7.7 1 1.85-1.86 1.13c-.34 3.15.55 6-1.21 8.48l-1.61.54c.35 1.32.68 2.54 1.14 4.3l-1.4-1.25c-.36.68-.72 1.38-1.13 2.18l.72.83-1.28 1-1.13-.71c-.33.11-.71.11-.8.28a19.2 19.2 0 0 0 -1.87 3.48 6.52 6.52 0 0 1 -3.37 4.2v3.09l-3.54 3.49h-1.25c-.14.26-.36.49-.37.72 0 1.28.09 2.57-.06 3.83a8.59 8.59 0 0 1 -.88 2.19l-4.34-2.78-1.16 2c.23 1.47.42 2.62.65 4l-2.89 1.36-.23-.39-2.83 3.29 1.38 1.09a14.9 14.9 0 0 1 -4 7c-.16 1.1-.24 2.06-.46 3s-.54 1.81-.83 2.67zm31.57-203c0-.86.36-2.13-.07-2.52-1.12-1-1.24-2.36-1.73-3.58-.63-1.54-.8-3.2-2.91-3.94-1.17-.42-1.85-2.19-1.86-3.78a2.7 2.7 0 0 0 -.25-.65l-1.59-.55v-1.93l-5.67-2.18c0-3-3.58-1.58-4.28-3.53l1-1.41-3.33-2.4c-.26.53-.54 1.09-1 2l-4.28-4h-5.15c-.1-.84-.18-1.51-.26-2.21l-2.2-.36c-.23-.65-.38-1.06-.54-1.53l-1.16.89-1.38-2.41-2.62.92 1.25-3-2.29.86-.91-.66c-.18 1-.33 1.8-.51 2.77l-7.63-1.21-1.86 1.94-2.83-.15-.41-1.8c-.4.83-.66 1.36-1 2l-.91-1.95-2.63.76-2.73-.91c-.41-1.89-2.13-2.61-3.31-4.3l-3.76 3.8-1.5-.1c0-1.17-.1-2.23-.15-3.2a3.17 3.17 0 0 0 -3.25 1 11.87 11.87 0 0 1 -3.07 1.59l-.77-1.92c-3.07.65-6.24 2-9.2 0l-1.51 1.18-2.16-1.86h-3.25c-.17.31-.53 1-.49.93l-3.36.37-.45-.39-1.57.93c.51-1.57.81-2.49 1.17-3.63l-5 1.16c.21.39.4.77.59 1.12l-2.25 1.06-.25-1.24a6.84 6.84 0 0 0 -5.16-1.2c-.89 1.1-1.33 2.15-2.08 2.45a20.34 20.34 0 0 1 -4.29.92c-1.31.23-2.62.4-4.24.64l-1-.68-2.07 1-1-.95-1.7 1.49-5.32-.56c-1.7 2.1-3.25-.84-4.88-.12a3.18 3.18 0 0 0 -.8.69l-5.43-2.64c-.17 1.15-.29 1.93-.43 2.85l-3.57-.33.83-1.52-1.91-2.95c-.2 1.34-.31 2.12-.42 2.87a10.36 10.36 0 0 1 -6.1-.65c-.37-.17-1 .14-1.42.23l.13 1.25 2.49.38c-.1.57-.19 1.05-.29 1.63l-1-.93-.75.63-3.13-2.12v-2.9l-1.77-1.11c.47-1.32.83-2.32 1.16-3.23l-2.16-2.32 2.12-2.59-1-1.54c.72-1.21.88-2.82 2.77-3.2l-1.94-.66v-3.28l-1.9-1.2c.31-2.07.6-3.94.91-6-1.38-1.32-.32-3.27-.6-4.46l2.12-2.83 3.33 1.3c-1.3-2.09-3.48-2.28-3.59-4.31 1.58-1-.06-3.11.95-4.47l1-.07 1.13-2.26c-1.24-1-.62-2.29-.57-3.21l2.58-1.71-2-1 1.65-.6c-.52-1.44-1-2.88-1.55-4.33l.73-.81c-1.65-2.58 1.11-5 .17-7.49-.06-.16.23-.45.28-.54l1.59-.62-.81-1.68.73-1.46c-.74-1.17-2.28-1.68-1.81-3.3.33-1.28 2.39-1.75 1.51-3.95l-2.73-2.73c1.88-1.51 1.29-3 .28-4.33l3.2-4.49-2-4.13c.4-1.34.69-2.29.9-3l2.74.61c-.57-.57-.73-.65-.77-.77-.31-1.15-.6-2.3-.91-3.5l-.94.83-2-2.13 1.78-1.89c-.92-1.6-1.66-3.3-.24-5.05-1.21-.45-2.48-.75-2.48-2.42l1.73-.81-.79-.9.68-.82-2.48-1.53c.26-2.92.1-5.62-2.28-7.63a.92.92 0 0 1 -.22-.74c.38-2.07-1.29-3.46-1.71-5.25.34-.55.69-1.1 1.23-1.95l-3.06-2.34 1-1-1.56-.59c-.66-1-.75-2.48-2.34-3.46-1.14-.71-1.34-2.95-2-4.63l2.37-1.54-.22-.48-3.54 1-2.69-2.68h-3l.8-2.23-1.47-1.19-1.44.9-1.57-1.58c-3.92.15-6.54-1.87-8.41-5.17l-2.25 2.1-1.21-2.14-7 2.46-2-1.12.8-.8c-2.4-3.37-5 .74-8-.87 1.51 2.21 1.47 3.77.55 5.31l.66.66-1.6.75-.64 3-.56-3.35-1.62.24c.34 1.37.63 2.58.92 3.78l-1.71.61v5.52l-1.53 1.24 2.35 4.54c-1.5.87-.23 1.81-.05 2.53l-.66.78 1.62.79-.88 1.07c.94 1.9 1.87 3.78 3 6l-3.79.41a2.7 2.7 0 0 1 .34 3.55c-.44.81.45 2.36.74 3.55l-1.91.67.9 1-1.86.88 1.87.67c-.7.55-1 1.18-.1 1.73-.69.62-.8 1.23.07 1.8-1.05.63-.7 1.69-.88 2.62a9.49 9.49 0 0 1 -1.07 2.17l-1.12-1-1.42 2.08 2.15.99-3 .62c.35 2.59 1.79 4.89.62 7.23l-2.91-2v3.4l2.9 2.84-1.18 2.31c1.13.77.91 1.66 0 2.49l1.87 2.35-1.86.93c.24.62.75 1.26.65 1.8-.39 2.21-1 4.39-1.45 6.5.26 1 .52 2 .89 3.32h-3.43c-.57 1.59-1 2.88-1.48 4.18l-1-.76c-1 1.83 1.18 2 1.29 2.61.49 3-1.32 4.59-2.54 6.48.29-1.22.59-2.44.94-3.89l-2.29-1.08c-.77 1.73 2 2.94-.22 4.54l-1.75-2.14v4.33c-2.13.4-2.24 1.92-2.67 3.32.67 1.44 1.75 2.85.54 4.46l-.9-.77-1.22 2.6 1 2-1.91.92 1.62.67-1.7 3.34 1 1.09-1.69.81.69.7c-.37.76-.76 1.53-1.07 2.16l-1.26.36-.17 2-2.92.79-1.78-.62c-1.07 2.24 1.92 4.05.12 6l-1-.86c-.61 1.53-1.61 3-1.64 4.45a24.86 24.86 0 0 1 -.64 4c-2.71 1.5-2.71 1.5-1.5 3.81-.44.77-.83 1.48-1.25 2.22-.52-1.86-1-3.49-1.47-5.26l-2.1 2.08c.29 1 .54 1.9.7 2.46l-3.33 2.68 2.75 2.17-2.25 5.23-1.44.3v2.45l-6.79 5.78v1.9l-4.29 3.43-1.49-1c-.1.92-.18 1.59-.26 2.26-3.11 1-4.23 3.83-5.51 6.45l-5.14-2.63c-.19.19-.38.55-.59.57-1.79.14-3.17.48-3.22 2.83 0 .84-1.28 1.65-2.63 3.26l-.8-2.22-3.84 3.72 2.11.75-2.64.4-3.58 5.59c-1-1.3-1.85-2.27-2.81-3.45l-5.29 3.76-1.68-1c-1.9 1-2.47 3-4.64 4.49l3.83-.66v1.17l-5.12 1.47c.31 1 .9 1.87.82 2.71-.19 2.07.92 3.59 1.86 5.45-2.11 1.86-.45 3.5.51 5.22.08.13-.09.39-.13.56l-1.06.22c.24 1 .45 2 .66 2.92l-1.76.64 1 1.33c-1.07 1.37-1.46 2.61-.16 4.06a10.85 10.85 0 0 1 1.33 2.83c.09.19.17.39.17.39l-1.51 3.08 1.12 2.08-1.65.59c-.38 1.16-.74 2.29-.89 2.73.35 2.2.6 3.77.86 5.36l1.65.74-2 .68c.38.49.69.91 1 1.29l-1.05 1.92c1.73 1.47.68 2.94 0 4.28l1.8 2.1c.12 1.94-1.73 3.48-.69 5 .77 1.1.53 2.08.71 3.13s1 2.4.58 2.91c-1 1.22-.35 2.44-.59 3.62-.06.26-.14.51-.14.52l-2.62 1.64c1.46.91 1.08 1.81.38 2.53.43 1.25.82 2.36 1.24 3.57a3.14 3.14 0 0 0 -.11 3.91c.78 1.37 1.64 2.84 1.08 4.59l.76.73-3.24 1.8a6.9 6.9 0 0 1 2.63 6 68.74 68.74 0 0 0 .53 7l-3.12 4.33v2.75l1.46 2.78-1.76 4 1.71-.83 1 2-.79 1.25 1.1 1.74-1.16 1.83 1.19 1.28c-1.74 1.84-1.17 3.93 0 5.83a4.3 4.3 0 0 1 0 5c-1 1.61-1.63 3.42 0 5-.46.5-.73.8-.62.67.16 1.37.28 2.34.37 3.1-.78.3-1.18.44-2.24.83l3.4.51-.91 1.91a12.71 12.71 0 0 0 1 2 3.54 3.54 0 0 1 -.85 5.05c-1.34.88-1.28 2.1-2.13 2.82 1 2 2.28 3.7 2.53 5.56a10.21 10.21 0 0 1 -.95 5.9c-1.36 2.54-.3 4.37.74 6.41a2.3 2.3 0 0 1 .13.59l-1.29.33c-.33 1.31-.52 2.61.58 3.74-1.84 1.36-.19 2.67 0 3.84l-1.6 1.56a9.07 9.07 0 0 0 1.36 6.18 12.38 12.38 0 0 1 1.89 6.82 76.9 76.9 0 0 1 -1 9.75c0 .22-.38.4-.59.61 1.5 1.13.69 2.49.2 3.57 1.64 2.21 4 .32 5.63 1.42.1.39.2.78.38 1.46h3.07c0 .58.07.85.09 1.12l8 3.06 1.37-1.25 3.33 3.34c.72-1 1.33 0 2.21.39s2.23.08 3.83.08l2.11 2.57c3.52-.28 5.74 2.24 8.35 3.22 1.21-.51 2.59-1.59 3.32-1.26 1 .44 2.19-.83 2.79.58 1-.67 2.26 0 3.24-.75.9 1.46 2-.93 2.95.18l.39 1.16c2.4 1.12 4.31-1.62 6.67-.2v2c.48-1.41 2.06-1.41 2.85-2.39 1.65 0 3.35-.12 5 0a44.76 44.76 0 0 1 4.6.87c.14-1.38.25-2.41.4-3.94l2.12 3.13 1.64-.82c.2.57.38 1.07.47 1.34l3.06.8.31-2.07c3.17.87 6 2.15 9.34 1.18v-2.4l3.07.77c.15-.78.29-1.55.45-2.39l1.29.28c.11 1.15.22 2.17.32 3.18l2.12-2.63 3.57-.4 3.6 1.35 3.48-1.84c.67 1 1.24 1.89 1.78 2.72l5.48-2.76 3.52 2.47c.1.73.18 1.37.24 1.81h2.26l.33-3c2.52.6.91 2.74 1.8 4.05l.95-.79.73.65c1-.66 2.72-1.13 2.94-2 .48-1.82 2.14-1.29 2.91-2.52l1 2.07h2.39l7.16-5.16.63 1.85 5.86-2.84c.89 1.07 1.69 2 2.31 2.77l6.46-2.25c1.71.23 2.88.38 4 .56s2.58-.55 3.47.77l2.68-1.55c1.38 1.8 1.38 1.8.4 3.79l1.2 1.21.86-.76c.93.94 2.35-.18 3.24.79 1.19-1.49 2.37.83 3.78.22l2.44-2.94 3.38 1.7-2.54 1.53c2.58 1 3.2-2.76 5.27-1.14l1.3 3.5c2.78-3 6.21-1.55 9.07-2.17.67-1.5-2.16-2.71.25-4.33l3 3.83c.54-.69 1.06-1.35 1.33-1.68h4.78l.28 1.34 3.64-1.32 3.33 2.2 1.34-1.06-1.16-1.63 5.09-2.8 3.65 1.25 1.1-1.22 4.22.87-1 2.81.73.29c.5-1.12 1-2.25 1.53-3.43h2.85c4.14-2.6 7.27-6.31 12.37-6 2-1.83 5.43-1.38 6.74-4.34h2.61c2-1 .57-4 3.2-4.11l1.2.75c.54-1.18 1-2.26 1.46-3.22l1.14-.23a30.88 30.88 0 0 0 .7-3.31c.15-1.32.52-2.82.07-4s-.75-2 0-3-.27-2.43.87-3.49a13.37 13.37 0 0 0 1.86-2.76l-.72-1 1.79-.62-1.37-1.24c-1.46.43-1.08 2.82-3.09 3.2.62-2.17 1.16-4.06 1.76-6.13l-2.19-4.6.56-.55-1.92-2.12c.75-1.73 1.11-3.57 2.17-4.79 1.24-1.4-.45-3.95 2.42-4.62l1.2.73 6.21-1.28.55.49 1.53-1.08 2 2.81 2.26 1a4.6 4.6 0 0 1 3.58-2.72c.11 0 .15-.37.22-.56l-1.56-.55 2.17-5.56.86.77 1.16-1.19-1.52-2.68a14.58 14.58 0 0 0 3.39-1.83 18.11 18.11 0 0 0 2.37-3.45l-1.45-.49a15 15 0 0 0 .74-1.53c.19-.54.28-1.12.46-1.82l2.5 1.22c-.82-1.7-1.38-2.86-2.09-4.35l1.41-1c1-2.71-1-4.19-1.43-6.11l1.6-1.93-.61-.72c1.05-1.47 2.09-2.9 3.26-4.54-1.19-.86-2.46-2.5-3.8-2.57-2.18-.11-1.52-3-3.5-2.85-.1 0-.25-.43-.34-.67-.29-.87-.61-1.74-.84-2.63a5.12 5.12 0 0 1 -.43-2.45c.31-1.11-.75-1.8-.48-2.88a14.51 14.51 0 0 0 .05-3.21l3.45-1.22-1.77-.83c-1.4-1.2 1.72-2.09.2-3.24.69-1.06 1.39-2.11 2.08-3.16l3.61-1.22.28-1.23c8.05 0 7.8-1.32 9.28-4.77 1.12-.54 2-1.06 3-1.42 1.62-.6 2-2.34 3.27-3.26a11.08 11.08 0 0 0 4.36-7.1c.34-2.12 2.66-3.22 2.07-5.43l1.89-.65a11.37 11.37 0 0 1 -1-3.05 10.39 10.39 0 0 1 .78-3.05l-1.26-.46c.18-1.6.34-3.14.55-5.11-4.09-.44-4-4.2-5.23-5.95l-3.29-2.44h-2.12l-2.14-3c.19-.18.39-.38.68-.68l-1.61-1.8c.32-1.32.59-2.34.8-3.37s.33-1.93.49-2.87l-1.52-.32 3-3-1-1.34a4.58 4.58 0 0 0 .7-1.45c.08-1.7 0-3.4 0-5.1 0-.23.23-.47.31-.63l2.36-.41-1.22-3.11 1.83.12c.09.89.15 1.56.23 2.37l2-1c.77-1.83 1.37-3.24 2-4.67l-.62-.81 1.67-.6c-.37-2.1.88-3 2.56-3.54v-4.35l2.1-4.33c-.7-2.75-.18-4.87-.52-6.82a9.35 9.35 0 0 1 -6.13-5.14zm-441.07 193.86 1.27 3.4c.49 1.33.67 2.63-.5 3.75 1.36 1.09.19 2.91.89 3.85 1.11 1.49-.91 2.72.2 4.07h3.39l4.43-2.28c2 1.9 3.47-.27 5.16-.55h2.91l2.3 2.22c5.22-2.42 5.65-2.42 11.81-.07l1.79-2.79c1.77 1.13 3.66 1.76 5.27.09l3.84 2c1.88-1.17 3.77-1.77 5.54-.18 1.92-.81 3.87-2.6 5.65-1.48 2 1.26 3.34 0 4.9-.32l1.43 1.12 2.18-1.87h3l1 1.68c5.79-.41 7.64-.25 10 .81 1.95-1.54 4.46-.14 6.36-1a7.26 7.26 0 0 1 6.1 0l.51-1.45 1.23-.06c.57 1.36-.63 3.83 2 4.27l1.64-.9 1.69 1 1.79-1.13 1.12 1 1.73-1.63h1.82l.62 1.74c1.61-.84 3 1.73 4.64.53.17-.63.26-1 .31-1.17l5.23-1 2.75 1a8.55 8.55 0 0 0 -1.05-2 6.05 6.05 0 0 0 -1.72-.61l1.7-1.85 4.19-.32-1.61-1.61h-3.64v-2.9c.59-1 2.19-1.25 1.47-2.65l-3 .56c1.25-1.84 1.81-3.26 3.61-3.45.1 0 .17-.36.28-.63l-2.53-1.67c.63-1.29 1.15-2.38 1.68-3.47l-1.37-.29c.9-.86 1.77-1.69 2.49-2.36a6.63 6.63 0 0 1 -.14-7c-.34-.56-.67-1.12-1-1.68l.78-.95-2.62-4.47 1.82-.65.38-2.09 1.89-.71-6.83-3.71 2.88-2.88c-1.19-2-.32-3.92-.76-5.61a31 31 0 0 0 -1.92-4.6c2.05-1.23 2.54-2.17 2.25-3.51.54-1.76 3.39-1.11 3.06-3.6l-2.83-.65c1.56-2.19 1.36-4.27 1-6.54-.51.44-.81.68-1.1.94-1.3-2 .78-3.65.5-5.53s-.53-4-.83-6.27a2.24 2.24 0 0 0 2.56-2.26l-2.88-1.87 2.9-2.23v-3.59l2.59-1.12-2.2-2.13-2.17 1.31c-.38-1.1-.72-2.07-1-2.9l2.64-1.59v-2.84c-1.2-.46-2.3-.89-3.79-1.45l2.2-1v-5.13l1.22-1.22c.7.45 1.13 1.31 2.46 1.89-.92-3.25-3.86-3.29-5.24-5l2-1 1.16.7c.38-2.2-2.89-2.65-1.31-4.93l1.14-.43c.39-1.31.75-2.52 1.17-4-.94.38-1.59.63-2.24.88-.41-1-.73-1.74-1.05-2.51l1.21-.27 1.11-6-1.62-2.83-4.31-1.51 1.88-2.25c-.41-.65-.67-1-.91-1.43l1.61-1.57v-2.94l2.47-1.7-3.65-2.54c.93-2 1.81-3.87 2.7-5.76l-1.48-1.48c.25-.29.5-.59.76-.88l-.87-1 2.57-1.73c.05-1 .1-1.91.14-2.61.73-.26 1.11-.38 1.47-.53 0 0 0-.19 0-.29-1.46-1-3.76-.85-4.16-3.24l1.91-.91-2.51-1.66c.33-2.76.63-5.31.87-7.31l3.62-3.25-2.75-2c-.68-1.44.8-2.2.13-3.28-.38-.62.49-1.3-.23-2.21-.54-.69-.11-2.16-.11-3.15l2.43-1.45c.63-3.52-1.34-6.43-1.67-10.18l2.71-1.56h-4l-.52-1.52c-2.93-1.21-5.67 1.75-8.41-.22-3 .21-5.84-.75-8.65-1.7-.83.92-2.57.88-2.68 2.31-1.29.8-2.6.07-4.07.71-2.16.93-4.73.95-7.15 1.18-.72.08-1.5-.62-2.25-.61s-2.18.89-2.48.58c-1.63-1.63-3-.21-4.87.35l-1.25-2-3.35 1.18-1.23-1.68-5.35-.86c-1.25.18-2.56.43-3.88.52s-2.81 0-4.61 0l-1.27-1.9-1.81.91-.69-.69-1.78 1.68a8.24 8.24 0 0 0 -1.32 0c-1.76.29-3.29 1.15-5.33.14a6.42 6.42 0 0 0 -5.29.17c-2 1.19-3.36-.05-4.89-.37-2.41 1.27-3.34 1-4.82-1.14-.2-.29-.63-.41-.91-.59l-2.63 2-1.12-1c-2.4 1.17-5.65 1.17-11-.09l-2.65 2.6-.8-.79c-1.66.89-1.32 3.8-3.88 3.54v2.72c-.67.74-1.31 1.43-1.49 1.64.49 3.28.88 5.9 1.3 8.69l-1.51.74c0 .43.14.92 0 1.26a5.58 5.58 0 0 0 -.05 5.72c.92 1.68-.95 3.71 0 5.66.15.32-.61 1.08-1 1.73l2.08 1c-1 2.13 1.76 4 .18 6.57l-2.68 1 2.31 3.42c-1.51 1.68-.42 3.75-.84 5.58s-1.08 3.74-1.63 5.6l1.53.63c-1.43.56-.14 1.65-.27 2.43-.24 1.47.57 3.1 1.06 5.18l-1.73 1 1.25 2.52-2.07 1a30.25 30.25 0 0 1 1.39 2.88 5.45 5.45 0 0 1 .45 2.34c-.08.89-.78 1.77-.73 2.62a11 11 0 0 0 1 2.9l-1.87 2c.21.21.57.39.59.61.25 3.26 1.54 6.42 1.08 9.75-.22 1.6-.6 3.16-.83 4.75-.27 1.87-.46 3.74-.73 6 .63 1.41 1.73 3.05 1.67 5.26 0 1.44.88 2.91 1.35 4.33-1.16 1.71-.62 3.46-.11 4.86-.6 2.24-2.54 3.93-.57 6.25.36.42-.26 1.67-.43 2.52.44 1.28.91 2.64 1.24 3.58-.39 1.24-.66 2.12-.89 2.86l2 2.16c-1.36 2.59-2.29 4.94-1.76 7.51l1.86 1.85a11.63 11.63 0 0 0 -1.07 2.37 13.34 13.34 0 0 0 0 2.75l-1.77.38a9.92 9.92 0 0 1 .43 2.29c-.06 1.18.93 2.4.42 3.32-1.18 2.13-.59 4.33-.83 6.73l1.91 1.5c-.63 5.26-1.25 10.41-1.86 15.48l2 .65c-.32 1.15-.67 2.16-.89 3.2-.14.65-.39 1.58-.07 2 1.4 1.66.36 3.47.79 5.26z" style="fill: #ffffff;"/></svg>
