<?xml version="1.0" encoding="UTF-8"?>
<svg xmlns="http://www.w3.org/2000/svg" viewBox="0 0 789 742" width="32" height="30.093789607098"><path d="m446.53 183.33-1.62-1.63a5.78 5.78 0 0 1 -5.19.47c-1.66-.77-3.52 1.55-4.68-.72-1.49 1.7-3.35.49-4.87.93-.52-.88-1-1.65-1.54-2.64l-3.21.87c-1.81-2-3.39 0-5.06.82a15.28 15.28 0 0 1 -10.54-2.26l-3.2 2.05a3.49 3.49 0 0 0 -3.66-.12 3.18 3.18 0 0 1 -3.31 0 2.72 2.72 0 0 0 -3.57.39c-.19-.16-.36-.46-.57-.49-2.68-.39-5.37-.76-8.07-1.07-.3 0-.65.36-1.07.61l-2.51-1.29c-2.33 1.81-5.49 1.12-8.31 2l-.52-1.42-2 .88c-.94-.93-1.93 0-2.92 0-1.29.09-2.31 1-3.72.89-1.1-.09-2.27-.41-3.45.46-.82.6-2.17.48-3.78.77-.11-.21-.49-.88-.81-1.46l-5.31 1.17-1.78-2.7-11.5 2.86.75 1-1.74.6-1.19-1.19c-.36.53-.71 1.07-1.2 1.81l-4.61-.75c-1.12.38-2.5 2.53-4.77.62l-.87 1.28-3.39.85-2.4-2.39c-2.1 1.87-4.37 2.94-7 2.68l-1.44 2.45a11.4 11.4 0 0 1 -1.66 0c-3.29-.47-3.81-.09-7.22.46-3 .48-6 1.31-8.94 2a9.59 9.59 0 0 1 -2 0l-1.9 3-7.89 1.3c-1.38 1.56-3.49 1.54-5.67 1.32l-.26 1.29a6.51 6.51 0 0 0 -2.36.35c-1 .19-2.15.38-2.94-.82l-.58 1.66-1-.75-1.74 2.39c-.64.17-1.86.46-3.05.84a8.74 8.74 0 0 0 -1.68.83c-.87.51-1.81 1.61-2.57 1.48-2.53-.42-3.57 1.94-5.68 2.36l-.51-.55-1.18.81-2.06-1-2.15 2.56h-4.63l-1.52 2.35a27.74 27.74 0 0 0 -6.71 3.46c-2 1.63-5 1.87-6.92 3.79l-.66-.58a11.46 11.46 0 0 0 -2.69 1.58c-.94 1-2.24.19-2.94.72-1.85 1.4-4.05 2.12-5.92 3.34-3.15 2-5.95 4.64-9 7.11h-2.22c-1 2.28-2.88 2.57-4.6 2.5-2.52.89-2 4.9-5.48 4.05-.09.83-.17 1.47-.24 2.1-.25.1-.49.31-.7.28-2.06-.26-3.67 1.05-5.46 1.47-2.18.5-2.89 1.79-3.88 3.33-.69 1.08-1.66 2.19-2.82 1.8-1.34 1.45-2.75 2.53-3.55 4s-1 3.2-2.87 4l-2.41-1v3.42l-1.48 1.48.74.75-7.31 2.09c-.33 1.94-2 2.73-3.8 3.58l-1.77-.75c-.29-.9-.58-1.85-.85-2.71l-5.41.56 1.11-1.41-3.12-2.12v-2.13c-1-.95-1.93-1.74-2.26-2l-.72-4.54 1-3.94-2.67-.42 1.92-.81a4.78 4.78 0 0 1 -.61-1.24 15.91 15.91 0 0 1 0-2.35l2.47-2v-2l3.22-2.17-.77-.9c5.2-3.28 4.54-4.13 5.62-6.32 1.27-.85 2.86-1.35 3.1-2.22.33-1.19 2.89-.54 1.79-2.48-.07-.12.13-.51.3-.65 1.5-1.26 3.08-2.43 4.51-3.76s2.76-2.74 4.91-2.87c.44 0 .83-.59 1.27-.83 1.32-.7 2.66-1.36 4.38-2.24.45-1 1.15-2.42 2-4.26l5.13-1.05v-1.53a22.47 22.47 0 0 1 8.68-4c1.45-.26 2.72-1.85 3.92-3s2.85-1 4.2-1.66c.36-.18 1.11.38 1.77.64l2.91-4 .84.65c3.44-1.46 7.45-2 10-5.8.18 1.07.3 1.81.44 2.65 1.89-1 3.32-3.6 6-1.57l1.5-1.51.93.71c.22-.51.44-1 .69-1.54h1.67l2.93-3.25h5.11l1.49-2.43h9.82l1.46-2.34h1.93c1.6-.83 2.53-1.24 3.38-1.77a22 22 0 0 0 2.1-1.61c.51-.42 1-1.25 1.49-1.24 3.6.08 5.41-3.15 8.32-4.28.2-.07.58.34.8.48l3.83-2.48 2.43 2.18 2-2.67.84.74c.18-.5.34-1 .55-1.57l2.67-.15 1.44-1.44c1.15 1.17 2.2-.86 3.37-.08.26-.56.52-1.1.77-1.65.81.36 5.36-.23 6.51-.81l1 1 2.47-1.8h3l1.68-1.67c3.45.88 7-2.49 10.48.29l5.22-2.66c2 .16 4.55-.52 6.9.81l.86-.81.88.82 3.5-1.16c.09-.44.17-.81.24-1.13.36-.07.7-.24.85-.14 2.2 1.42 4.67 1.06 6.85.44 1.1-.31 2.49 1.56 3.17-.46h7.7c1.21 0 2.42 0 3.63.08.2 0 .38.35.57.55 1.47-.63 3.17-.67 4.29-2.15.25-.32 1.61.2 3 .41l1-1.41.82.82c.75-.87 1.49-1.75 2.19-2.58l3 2.32c2.63-1.11 5.68-2 9.3-.59-.32-.79-.55-1.34-.87-2.11l2.65-.26 1.61 1.62h3.43l1.3-1.73c1.14 1.18 2.1 1.35 3.25.39.92-.77 2.4.4 3.29-.87.73-1 1.5 1.31 2.62 0 .53-.65 2.13-.4 3.56-.6l1.2 1.26a11.23 11.23 0 0 1 3 .07 7.6 7.6 0 0 0 2.11.21c.92 0 1.84.7 2.77 1a5.94 5.94 0 0 0 1.5.29 9.74 9.74 0 0 0 1.62 0c1.57-.12 2.85 1.41 4.51.77 1.4-.53 3-.78 4.17-1.63 2.22-1.63 4.21-.13 6.25.12.91.11 1.72 1 2.56 1.49l1-.87 3.54 1.83 4.36-.65 3 2c3.2-1.08 6.26-1.12 9.06.85 2.21-.55 4.14-2.55 6.77-.73.73.51 2.1.1 3.19.07a15 15 0 0 1 7 1.71c1.78.89 3.4 1.77 5.46 1.58.41 0 .86.48 1.1.63 1.25-.2 2.74-.91 3.36-.44 1.22.89 1.73-.58 2.73-.3a14 14 0 0 0 3.68.07l1.69 1.6c1.15-1.49 2.75-.41 3.79-.79l3.08 3.83c.48-.9.74-1.38 1-1.94l3.18-1.06 2.82 1.48.74-.74 1.68 2.61 2.18-1.07a28.65 28.65 0 0 0 2.33 2.46c1.48 1.13 2.84 2.69 5.07 1 .69-.52 2.09-.08 3.13-.08l1.5-1.5 4.42 3.14h5.45l3.68 2.51 1.24-.85c1.64.61 3.77.84 5 2 1.41 1.32 3.41 1 4.7 2.67 1 1.27 3.09 1.09 4.93.89l1.59 2.46c4.3-.67 7.33 4.4 11.9 3.16 3.6 2.51 6.83 5.22 11.09 6v1.83a19.78 19.78 0 0 1 3 1.35c1.27.83 3 .7 4 2.18.25.38 1.53.06 2.46.06l3.42 4h2.93l2 2.27 2.3.38.23 1.08 4.96 1.45c.68 1.35 1.25 2.47 1.94 3.8l3.6 1.24c.08.4.16.77.25 1.2h3.21c1.55 1.25 3 2.64 5.06 2.54 3.65 3.31 7.26 6.65 11.9 8.54a9 9 0 0 1 4.42 4.36l.62-.68 3.74 2.6v2.82l5.24 1.27 3 3.55c1.25.19 2.85.14 3.07 1.42.26 1.45 1.52 1.8 2.08 2.81h2.36c2.12 1.48 3.31 3.82 5.72 5 .85.41 1.06 2.16 1.57 3.31l3.11 3.27 1-1.62 6 4.39a18.61 18.61 0 0 0 .8 2.11 18.13 18.13 0 0 0 1.35 2c2.12.39 4.77.33 5.59 3.35.19.72.59 1.57.37 2.17a5.1 5.1 0 0 0 .43 4.31l1.46.16-2.74 2.74c.45 2.84-.46 5 1.13 7.1-1.15 1.95-5 1.91-4 5.76l-3-1.15-4.22 1.82c-3.53-2.47-5.1-2.83-7.33-1.73-2.48-1.2-5.77-.7-7.39-3.65l.72-1.09a16.89 16.89 0 0 0 -2.88-3.24c-1-.71-2.49-.84-4.17-1.35l2.47-3c-.83-.55-1.57-1.45-2.21-1.38-1.47.15-1.11-1.23-1.75-1.62s-1.66-.2-2.11-.66a8.8 8.8 0 0 1 -1.14-2.63l-1.85-.09a8.54 8.54 0 0 0 -5.1-4.73 26.78 26.78 0 0 1 -4-2c-2.59-1.53-4.5-3.85-7-5.46-.52-.34-1.09-.62-1.81-1v-2.81a6.19 6.19 0 0 1 -2-.16c-.57-.25-.93-1-1.5-1.26a7.42 7.42 0 0 0 -2-.42l-3.06-3.06-.77.55c-.94-.44-2-1-3.06-1.42s-.73-2.53-2.61-1.55l-1.66-2-4.46-1.21-.17-3.17c-.92-.59-1.81-1.64-2.64-1.6-3.62.18-6.1-3.65-10-2.51-.48-1.41-.92-2.71-1.37-4-.58 1.16-2-.77-2.54.63-.85-1.27-2.17-.64-3-.78l-2.67-3.39-.86.86-3-3.25h-2.85c-.67-1.07-1.29-2-1.7-2.67l-8.94-3.52-.57.49-3.52-1.08c-.09-.37-.19-.74-.32-1.24h-4.24c-.21-.59-.37-1.06-.58-1.64l-2.63-.13-1.48-1.48-1.16.78-7.26-4.07h-4.1c-.44-1-.91-2.16-1.44-3.42l-1.46.64c-1.38-.84-3.07-.41-4.88-.52l-2-1.81-1.08.77-3.82-1.91c-.05-.2-.12-.57-.23-1.07h-2.77l-2.29-3.41-1.77.68c-1.66-.41-3.52-1.56-5.68-1.47-1.18-2.37-4-.75-5.33-2.49l-1.17 1.08c-2.22-1.55-4.81-.6-7.36-1l-.34-1.35c-1.09-.22-2.31-.63-3.43.51l-4.44-3.16-3.54.58-7.68-1.4c-.08.48-.15 1-.25 1.43s-.19.72-.31 1.15l-1.32-1.28 1.11-1.27-3.72.89c-.93-1.21-1.79-2.31-2.64-3.4l-5.31 1.91-2.25-1.85z" style="fill: #ffffff;"/><path d="m410.44 253.47-1.4-1.41a9.36 9.36 0 0 1 -2 0 5.67 5.67 0 0 1 -1.46-.71c-1.82.69-3.41 1.62-5.1 1.85a8.78 8.78 0 0 0 -4.08 1.46l-1.15-.78-2.66 1.35-2.91-3.62-2.83 2.13h-3.23l-1.38 2.41c-1.36-.22-2.93.61-4-.67l-2.23 3h-3.26l-3.34-2.23c-1.9.74-4 1-4.69 3.07h-3.68l-1.46-2.11-1 1.68c-2.08.1-4-1.07-5.45.33l-1.48-.83-1 .94-1.35-2.33-2.18.9v1.89l-1.67.58.89 1.57-4-1-.94 1.78c-2.14-1.61-4.18-.63-6.29-1.07l-2 2.55h-2c-.18.48-.46 1.29-.75 2.1l-.65-.72-5 .9-1.71-1.39-2.64 2.64c-1.71.14-3.37-1-4.5.47l-1.34-.91-2.06 1.71-.86-.87-1 1.89-6.16-1.79-1.89 2.46a24.23 24.23 0 0 0 -4 0c-1.16.17-2.26-1.39-3.56.16l-1.99-1.85c-.11.42-.4.94-.26 1.12.73.93 1.56 1.77 2.36 2.64l-.63.63.72 1.46c-.1.22-.12.4-.2.43-.82.31-1.95 1.08-2.43.79-2.07-1.24-4.41 2-6.27-.83l-3.14 2.86-3.8-1.1-.64 1.52-2 1-.34-1.27c-.18 0-.41-.05-.55.05-1.15.76-2.29 1.56-3.25 2.22l-4.25-1.12v3.72l-1.16-1.05-1.2 1.2 2 1-3.4.38-.56 1.5-.9-.77c-.92.63-1.83 1.32-2.8 1.9s-2 1-3.19 1.64v1.33a17.21 17.21 0 0 1 -2.52 2.34c-.95.55-2.14.7-3.15 1.17s-1.94 1.12-3.19 1.86l-2 2.67h-3.45l-3.47 4.48-2.24-2c-3 2-5.91 4.14-7.44 8.05l-5.79 1.18v2c-3.28-.39-1.83 3.68-4.23 4.34l-1.25-.87c-1.77 2.34-4.67 2.88-7.55 4.59 0-.13-.12.34-.27.75-.95.32-2.16 1.14-2.72.82-1-.58-1.6-.86-2.26.25a2.71 2.71 0 0 0 -.63-.51c-2.36-.83-4.23-2-4.83-4.77-.24-1-1.21-1.93-1.77-2.77l-2 1.05v-7l-1.81-1.88v-2.39l2-2.06.8.81c.71-1.57 1.46-3 2-4.51.83-2.22 1.55-4.47 4.54-4.46.53-1.35 2.56-1 2.9-2.8.25-1.33 1.89-1.11 3.27-1.47l-1-2.2a2.66 2.66 0 0 1 .5-.82c1.49-1.27 3.06-2.45 4.52-3.76s2.5-2.67 4.57-2.72c.33 0 .63-.57 1-.84a9.1 9.1 0 0 0 1.42-1c.89-1 2.07-.27 3-.62s1.67-1.26 2.6-1.52a12.15 12.15 0 0 1 3.13-.06c1.09-1.31 2.72-1.92 3.5-3.45a1.7 1.7 0 0 1 1.34-.57c1.6 0 1.82-1.2 2.3-2.41h2.58l4.52-2.24c1.73-3.45 5-5.39 9.34-6.15l1.28-2.11h2.61c2.47-2.48 2.47-2.48 6.72-2.68.18-.46.35-.93.56-1.48l.89.75 1.56-2.41 1.1.93 3.82-4.92a6.22 6.22 0 0 0 5.61-2.33c1.93-.62 3.45 2.19 4.92-.15l.94.86 5.06-2c1.31-2.55 1.31-2.55 3.81-1.28a4.11 4.11 0 0 1 3.38-2.46 23.29 23.29 0 0 0 4.15-1.27l1.36 1c.33-.77.65-1.53.76-1.76l7.62-1.38 1.09-1.09a11.81 11.81 0 0 0 1.79.51c.56-1.27 1.42 0 2.11-.29a14.09 14.09 0 0 1 2.22-.5c.72-.21 1.4-.55 2.12-.84l1 .88c.39-.49.79-1 1.2-1.54h4.31l1.63-1.63a31.89 31.89 0 0 0 3.47-.26 20.91 20.91 0 0 0 2.76-.84l2.05 1.76 2.14-2.17 11.75-1.68 1.08 1.3a18.72 18.72 0 0 1 3.82-1.39 20.28 20.28 0 0 1 4.13.29l.47-1.32.84 1.81 1.47-1.48c1.55-.18 3.11-.45 4.67-.51a10.82 10.82 0 0 0 3.86-1l2.78.27.07-.44 1.52.74 2.66-3.5c2.47.49 4.23 2.61 6.83 2.39 1.75 0 3.21-2.65 5.36-.72l3.2-1.67.72 1.67 3.63-2.41 1.46 2c3.69-2.36 7.61-1.83 11.44-1.83.14.56.24.93.33 1.29.23.1.46.29.69.29 1.76 0 3.52.12 5.27 0s3.28-.55 4.94-.77c3-.39 5.44 1.06 8.24 2.18l.78-.65 1.76.9c2-.27 4.36.37 6.71-.7 1.08-.5 2.7.19 4.61.4l2.69-1.46c1.79 1.87 4.58 1.47 6.63 2.66 3.72-1.6 5.75-1.81 8.27-.9l.8-.82c.85.85 1.73 1.72 2.63 2.63l2.28-.79c2 1.35 4.29.2 6.2.61l3.79 2.58 1.68-1 4.19 2.5 1-.52 6.73 2 .78-.7 2.42 3.16 3.74-.81 1.87 1.79h4c2.6.62 2.92 3.52 4.82 4.83l1-.92c2.56 1.43 5.57 2.14 8.14 4.31h7.37c.09.78.16 1.42.24 2.2h3.81c.41.94.82 1.85 1.4 3.16l1.57.82 1.07-.65c2.07.86 4 1.83 4.63 4.28l3.32-1.71c1.58 1.44 2.95 3.58 5.55 3.11l3 3a16.78 16.78 0 0 0 5.24.27l3 4 .79-.58 2.84 3.11 2.27-.58c.88 1.31 2.49 2.48 3 4.42 3.16 1.22 6.74 1.87 8.07 5.59l3.46 1.13a33.29 33.29 0 0 0 2.48 4 30.19 30.19 0 0 0 3.36 3l.67-.55 2.7 2.71 2.65.76c-.66 1.63 1.71.72 1.68 2.1s1.58.23 2.21.94a5.26 5.26 0 0 0 2.61 1.53c2 .59 4.25 1.54 4.1 4.57h2c.75 1.94 3.18 2 3.91 4.07.66 1.85 3.74 1.51 3.91 4.15l1.92.11c4.24 4.1 7.77 8.91 12.52 12.24v3.7l-3.09.62a15.71 15.71 0 0 1 2.34 1.75 16.2 16.2 0 0 1 1.47 2.34v3.44l-4.76 3.15 1.55.58.09 1.68-2.79 1.46c-.56-1.14-1.08-2.22-1.62-3.33-1.55.68-3.15 1.31-4.67 2.1-.56.29-1.36.08-1.66 1.27-.2.76-1.85 1.38-3.25 1.45a21.34 21.34 0 0 1 -7.48-1.28l2.14-2.92-4.08.55-.42 1.07a29 29 0 0 0 -2.28-4.5 29.11 29.11 0 0 0 -4-3.52l-1.36-.16c-.05-.94-.1-1.84-.16-3-2.11-.21-2.27-2.9-4.49-3.47-1.76-.44-3.3-1.76-5.21-2.84l.61-2.67-1.41-.09a42.75 42.75 0 0 1 -3.5-3.15 32.25 32.25 0 0 1 -2.34-3.34h-1.81c-1.25-2.22-3.34-3.43-5.25-4.84-.51-.38-1.38-.65-1.51-1.12-.68-2.54-2.85-2.58-4.61-3.07a7.42 7.42 0 0 0 -1.34-1.95 61.12 61.12 0 0 0 -7.89-5.39c-2.82-1.43-5.43-3.19-8.22-4.63-1.3-.67-2.28-2.2-3.37-2.32-1.67-.19-2.1-2.08-3.7-2-.1 0-.22-.68-.37-1.14a3.65 3.65 0 0 0 -3.87.53l-3.22-1.19c-1-1.58-3.39-2.37-4.54-4.46h-1.59c-.79-1.87-2.11-3.2-4.5-4.66.32 1 .42 1.36.65 2.12l-1.24.71-1.19-1.19-2.68.79-2.14-2.67h-3.25l-3.83-2-.3-1.2h-4.13c-1.3-3-4-3.61-6.81-3.86a6 6 0 0 1 -3.47-1.28 37.52 37.52 0 0 0 -3.79-2.21 8.43 8.43 0 0 1 -7.35-2.55 3.93 3.93 0 0 1 -3.76.19 37 37 0 0 0 -12.33-2.5c-.37-.5-.86-1.14-1.21-1.6-3.59 0-3.59 0-5.37.83l-.41-2.41h-3.89c-.36-.55-.8-1.22-1.5-2.31a9.92 9.92 0 0 1 -1.29 2.15 7.55 7.55 0 0 1 -2.07.9h-4l-2.15-2.57-2.21 1.14-1-.87-1 .88-3-1.45-5.81 1.21-3.61-2.3-4.7 2.88c-.89-.84-1.55-1.45-2.33-2.17z" style="fill: #ffffff;"/><path d="m286.29 330.78 4.57-1.18c0-.08.13-.44.25-.84 2.78-.94 7.51-3.87 8.3-5.25h4.08c2.64-4.5 8.29-3.84 11.48-7.4h2.44l1.76-1.76c1.36.31 2.93 1.09 4.32.83s2.47-1.21 3.76 0l1.06-1.11-.9-1.07h4.7c.16-.85.3-1.59.45-2.4l8.82-2.38c-.14.21.21-.36.48-.79l7-1.27a23.55 23.55 0 0 1 2.68-1.4 26.19 26.19 0 0 1 9.05-1.71 60 60 0 0 0 8.08-1c.21 0 .39-.36.57-.55l.67.6c5-2.68 9.5-1.51 14.07.88.16-.15.41-.56.75-.65 1.25-.32 2.7.62 3.8-.65 1.17 1.12 2.2 0 3.3-.18a30.11 30.11 0 0 1 10.1 1 3.58 3.58 0 0 1 .85.62c4.55-2 9-2.54 13.27.08l.83-.72 2.95.87c.1.37.19.73.34 1.31 2.08.18 3.6-.88 5-2.41a9.4 9.4 0 0 1 2.7.05c1 .32 1.62-1 2.74-.38a9.22 9.22 0 0 0 2.9.48c.59.87 1.3 1.94 2 3l2.7-1.41.53.48c1.6-1 3.4-.44 4.51-.56l4.61 2.33.77-.67c1.07.57 2 1.63 3.52 1l1.37 1.36h4.8c.85 2.81 4.3 1.83 5.54 3.8l5.32-1 .29 1 4.68 1.42c.15 2.3 3.37.65 3.45 3h4.65c.06 1 .1 1.95.17 3.24a6.67 6.67 0 0 0 2.34.73 18.73 18.73 0 0 1 7.67.93l1.53 2.45c3.33-.69 5.61.94 7.35 3.12l1.82.09.59 1.57a7 7 0 0 0 1.59 0c.35-.09.62-.46 1-.73l1.69 1.6h1.4l3.3 3.93 1.84-1.06.42 2.6 3.25 2.17-1.78.83 1.07 1.07h3.19a13.42 13.42 0 0 0 5.3 3.42 2.76 2.76 0 0 1 1.3.74 6.83 6.83 0 0 0 6.57 2.45c2.31 2.63 6.06 3.93 6.27 8.13h2.64l2.48 4.06h1.75c.13.72.27 1.45.36 1.91l6.53 3c-.32 1.38-.59 2.55-.82 3.52l4.72 2.15v2.75c.21.16.39.4.61.44 2.29.51 2.3.5 2.69 2.78.81.56 2.15 1.06 2.16 1.58.05 2.55 4.58 1.84 3.32 5.2h3.71l2.06 2.5v3.68l-2.51 1.7c.56 1.48 1.08 2.88 1.75 4.64l-1.71 3-1.91.14c-.91 2-2.78 2.66-5 2.35-.24.65-.41 1.12-.66 1.82l-1.77-.85-.56.49c-1.31-.82-2.7-1.19-4 .73a5.27 5.27 0 0 0 -4.68-2.83c-2.45-.14-4.18-1.88-6.47-2.15-.31 0-.58-.54-1-1l1.11-2.26-1.67-.69c-.07-.6-.14-1.24-.24-2h-2.69c-.34-.38-.55-.79-.88-1-1-.52.54-2.31-1.28-2.45-1-.07-.59-1.84-2-1.83-.5 0-1-1.34-1.59-2.17h-2.2a1.39 1.39 0 0 1 -.36-.25c-1.06-1.55-2.07-3.15-3.76-4-1-1.61-2.06-3.22-3-4.69h-2.74c-.18-1.13-1.05-1.49-1.92-2-.68-.41-1-1.35-1.62-2.2l-1.4.84c-.26-2.29-3.45-2.19-3.45-4.33l-5-1.41v-2.06h-2.4c-1.54-1.26-3.15-2.08-4-3.39-.95-1.49-3.33-.32-3.45-2.43h-2.56c-.53-.77-.88-1.89-1.54-2.12a7.53 7.53 0 0 1 -3.64-2c-1.77.89-1.62-1.66-2.91-1.62a3.83 3.83 0 0 1 -3.06-1.71 20.28 20.28 0 0 0 -2.85-2.27l-.86.71c-.22-.54-.4-1-.65-1.61-2 .07-4.13.15-5.73-1.6h-5.68l-.39-1.1-6.41-2.86c-1.52.92-3.39.14-4.8-.26a31.42 31.42 0 0 0 -5.41-.69l-1.14-1.14.77-.84-1.42-1.47-5.4-2.24-1.65 2.27c-1.93-1.26-4.23-.28-6.39-.58s-4.35-.64-6.77-1l-1.27-1.33h-5.68l-2.07-2.61-4.56 2.29-6.41-2.08a13.6 13.6 0 0 1 -1.31.66 1 1 0 0 1 -.79 0c-2-1.42-4.95-.22-6.91-2.44-1.23 1.51-2.65 2.55-4.35.75-1.14.49-2 1.42-3.3.58a17 17 0 0 0 -7.14-2.34c-.22 0-.39-.36-.56-.53-1.81 1.13-4.31 1-5.54 3.09-2.7-1.69-4.24.3-6.31 2l-5.75-2.05-2 1.71c-1.84.4-3.94-.66-5.68.82l-1-.87-6 2.51-1.66-.93-1.12.93-.47-.47-5.53 2.7c-2.79-1-5.34-.35-7.73-.61l-2.93 2.92-2.91 1c-1-1.35-2.62-.18-3.25-.45-1.91.62-3.22 1-4.51 1.48a19.77 19.77 0 0 0 -2 1c-1 .48-2 1-3.06 1.43-.34.15-.91.07-1.07.31-1.87 2.78-5.07 2.76-7.78 3.77-.7.26-1.93.8-1.89 1.07.36 2.55-2 2.77-3.18 3.84-.44 2.06-.89 3.94-3.53 4-.53 0-1 .73-1.55 1.1-.84.59-1.69 1.14-2.53 1.73-1.76 1.22-4.53.81-5.44 3.57-.18.57-1.79.67-3.47 1.22l-3.83 4.64-1.64-1c-2.92 1.82-6.2 3.21-8.16 6.19l-4.77 1.4-1.36 5.41-6.4 4.84-3.1-.43-1.71 4.27-2.85-.82c-.12-.54-.28-1.38-.57-2.8l-2.28 2.94c-2.73-1.72-4.89-4.12-7.62-5.83-.93-.58-1.29-2.11-1.88-3.21-1.66-3.11-1.77-6.48-1.58-9.87 0-.54.62-1.05 1.12-1.84l3.12-1.57-.89-1.47c.07-.1.18-.3.32-.47 2.51-3.1 6.37-4.51 9.14-7.26a10.17 10.17 0 0 1 4.63-2.49 6.84 6.84 0 0 1 3.3-3.46c1.13-.66 1.59-2.48 2.35-3.78h1.9l.14-1.9 6.22-2.73.58.52 5.27-4.78.16-1.35c1.58.29 1.12-2.2 2.82-1.95 1.39.22 1.81-1.39 2.79-2s2.53-.87 2.52-2.78z" style="fill: #ffffff;"/><path d="m347.46 498.2 1.78-1.78-.59-.67.74-.83-1-1.07 1.93-2.55-.84-1.27 1.5-1.61-.65-.66 1.41-2.79-1.55-.33c.59-.7 1.61-1.39 1.54-1.92-.23-1.52 1.49-.76 1.64-1.73l-1.4-.51c-.71-2 1.12-3.25 1.59-4.84l-.93-1c1.15-1.8 2.31-3.62 3.33-5.2l2.78-.17c-.74-1.11-1.21-1.84-1.94-2.94v-3.43l2.7.84c.36-.69.7-1.36 1.1-2.12l-.68-.8 1.39-1.13 1.29 1.89c.8-1.53 1.43-2.75 2-3.9 2.16-1 4.74-.81 6.25-2.88l.85.77 1.16-1.16-1-1.06 1.78-2.34 1.23 2.16h1.85c.1-1 .2-2 .32-3.25l1.39.94c1.53-.73 2.43-2.3 3.7-3.29 1.95-.42 4 .62 5.88-.88l3.31 2.94.34-2.11c1.16.12 2.46-.56 3.5.77 1-1.07 2-1.18 3.22-.07l5.7-3.3c1 .34 2.65.92 4.73 1.66l.92-.53 1.18.68 1.59-.89c2.14.85 3.94 2.33 6.28 2.64a4.06 4.06 0 0 1 2.22 1.4 7.39 7.39 0 0 0 6.7 2.48h1.88v3.15c1.92-.43 2.61-.07 3.77 1.87l2.79-.8c.3.8.7 1.85 1.11 3 1.59.61 3.72-.78 5.24 1.27-1.79 1.43-.08 2.86.14 4.34s1.45 2.37 3.31 2.85c-.22 1.3-.44 2.63-.72 4.34 1.43.69 2.51 2.51 4.8 2.8 1.46.18 1.6 1.2 1 3l2.32 2.61h1.41c-.15 1-.28 1.92-.46 3.19.32.2 1.05.69 2.09 1.38.48.74-.16 1.81-2.7 3.53l1.95 2.15c-1 1.12-2.09 2.28-3.32 3.64.3 1 .95 1 1.6.32l5.63 5.62-2.27 1.89v3.84l-.42-.12-2.22 4.65 1 1.31c-.36 1.85-1.79 1.78-3.17 2 1.85 3.18 0 6.21-.28 9.53l-5.18 2.28-.68-.68-1 3.14 1.81.83c-.69 1.48-1.11 2.38-1.54 3.32l-2.68.14c-.36 1.42-.2 2.92-2.25 3.25-1 .16-2.6 1.17-2.69 1.93-.21 1.91-1.71.79-2.31 1.39a15.18 15.18 0 0 0 -1.54 2.21c-2.41-.26-2.41-.26-3.06-3.39l-4.78 5.36-.26-.29c-.45 1.3-.89 2.6-1.41 4.12l-2.76-.53c-.39.76-.92 1.82-1.54 3.05l-2.52-.73c-.31.54-.74 1.31-1.21 2.11h-3.49l-1.69-2.74c-.22.84-.34 1.27-.46 1.71-.21.1-.47.33-.66.29a22 22 0 0 0 -2.92-.75 10.61 10.61 0 0 0 -2.61.57l-2.86 3.46-1.3-3c-1.69 1.84-2.84 3.11-4.31 4.72l-2.18-.88c-.07-1.24-.12-2.14-.19-3.43l-2.47 1-2.19-1.88c-.09-1-.18-2-.34-3.82-.42 1.23-.57 1.69-.76 2.26l-5.15 1.11a7.43 7.43 0 0 0 -3.5-3.56c1-1.58 1.18-2.94-.76-4l-2.12 1.06-2.81-3.51-2.57.73-3.78-5.31-.61.62c-.3-.3-.74-.56-.89-.93a10.85 10.85 0 0 1 -.43-1.94l-5.84-2.18a17.58 17.58 0 0 1 -.48-1.79c-.11-.63-.11-1.28-.16-1.87l-1.57-.41c.37-1.39-.68-3 .81-4.3-.38-.38-.77-.76-1.15-1.15l-.64.57-3-3 .76-1.35-1.65-.58c.2-.55.39-1.09.67-1.84-1.29 0-1.27-1.55-2.19-2.28l.77-.84-2.27-3.38.76-.76-2.07-1.18 1.17-1.17-2.45-1.31 2.93-1.88-2-.66v-2.25l1.74 1c.52-1.64.52-1.64-2.21-2.2z" style="fill: #ffffff;"/><path d="m508.67 451.52-1.55 2.29-3.38 1.71c-4.67-1.44-8.77-3.56-11.61-8.22.08-.53.25-1.64.47-3.06l-2.48-1.54c-1.4 1.32-2.33-1.14-3.84-.74l2-1.62c-2.57-.42-5.33.54-7.36-2.15l-.34-2-1.15.63-.59-1.48-1.17 1-2.67-3.4-1.58-.08c-1.17-1.35-2.55-2.29-2.91-3.53-.42-1.47-.81-2.73-2.3-3.53a5.16 5.16 0 0 1 -1.05.59 4.45 4.45 0 0 1 -1.21 0c-.43-.54-.76-1.37-1.31-1.57-2-.74-3.52-2.6-5.86-2.49-1.21-1.57-3-2.43-4.5-3.58-1.28-.95-2.37-1.63-4-1.13-.15-.55-.26-.91-.44-1.54l-5.09-1-.68.61-2.83-.91-.52-1.43-3.66.62-.11-1.87c-2.52-.36-5.42-.08-7.53-1.25-2.39-1.32-5.14.64-6.95-1.55l-1.86 1-1.7-2.55c-2.39-.1-4.86.48-6.62-1.63a11.72 11.72 0 0 1 -8.79 0l-.73.59c-1.75-.2-3.59-.93-5-.42a7.9 7.9 0 0 1 -4.78.23c-1.38-.28-3 .63-4.73 1.06l-3.28-.78-2.29 2-1.17-.78a21.41 21.41 0 0 1 -9.86 1.32l-1.33 1.88c-2.83-1.6-5.66-.74-8.51-1l-1.6 2.49c-1.88.09-4.13-2.15-6.27.35a12.75 12.75 0 0 1 -8 3.81l-3.36 3.93h-1.59c-1 1.55-1.74 3.74-4.2 3.32-.51 1.46-.95 2.76-1.43 4.13l-2.62-.6-1.4 2.29-.58-.54v2.72l-3 1.27c-.38.56-1 1.51-1.68 2.51l.54.6-4.88 3.11c.43.49.67.77 1.05 1.19l-5.7 1.4v3.21c-1.59 1.32-3.41 2.23-4.28 3.71s-3.19 1.74-3.22 3.79l-3.86 1.93-2.34-1c-.1-.67-.22-1.42-.36-2.33-.66 1-1.2 1.82-1.72 2.59l-5.95-1.72c-.28-2.33-2.05-3.81-3-5.7a11 11 0 0 0 -3.76-4.44c.83-4 1.67-8 2.54-12.18l3.06-3c.08-.73.16-1.37.22-2l4.64-2.39c1-2.4 1.25-5.61 3.88-7.65l3 1.21-.95-1.53 3.06-2.26v-1.86l4.33-5.94h2.46l1.58-1.57c3.23 1.57 4.68-1.31 6.74-2.68.8-.53 1.65-1 2.46-1.45l.5.51 3.28-3.84h2.88v-4.08c2.6.83 4.3-2.95 7.09-1a10.65 10.65 0 0 1 6.63-1.4c.11-.53.18-.9.3-1.47h2.6l1.75-3.45.61.62c1.88-.47 3.76-1 5.69-1.39 1.25-.23 2.52-.43 3.74-.67 1.64-.32 3.68-.94 5.37.55.33.28 1.3.07 1.86-.18 2.17-1 4.35-.62 6.54-.23.21 0 .38.3.41.32l3.14-1.09 4.26.66c.9-2.07 3.12-1.61 4.9-2.87l1.17 2.09 4.1-2.78c3.16 1.07 7 .56 10.41 2.57 1.61-.89 3.25-1.34 5.09-.36 1 .54 1.11.39 2.55-.34 3 1.13 5.87 2.35 9.33.81l1.14 1.69 1.24-1.13c2 .65 3.42 3.92 6.34 1.83l.94.85 1.41-1.8c1.47.32 3.05.22 4 .95a15.31 15.31 0 0 0 3.7 1.91 13 13 0 0 0 7 1.18l1.64 2.48h1.55l1.75-1.64.62 1.75 1.63-.61c2.46.12 4.34 2.05 7 2.24 2.5.18 3.87 3.41 6.88 3.13l2.71 2.94c2 .43 3.95.33 5.16 1.23 2 1.46 4.24 2.26 6.26 3.54.21.14.14.71.21 1.1l2 .22 3.63 4.67h2.83l.56 1.27 6 1.4c1 .62 1.56 2.25 3.4 2.41.13 2.41 2.46 3.16 3.75 4.78s2.48 3.57 3.88 5.63c2.91-.59 4.9 1.9 7.57 2.67 1.24.36 1.92 2 2 3.56v3.19l3.07 2.47-.41.48c1.11 1.86.35 3.94.6 5.72l-4 3.38 1.22 1.31.79-1.82 1.9 1.06c-.76 1.81-.83 3.9-3.23 4.76l-1.25-.75-1.55 2.43c-1.77-.4-3.59.74-5.1-.88z" style="fill: #ffffff;"/></svg>
